{"title":"Curb Your Enthusiasm - Season 1","uid":10678411,"size":12404458340,"categoryP":"video","categoryS":"tv_shows","magnet":"?xt=urn:btih:f6e806a9406d4179cb4e846c80c77194cdb80f82&amp;dn=Curb+Your+Enthusiasm+-+Season+1&amp;tr=udp%3A%2F%2Ftracker.openbittorrent.com%3A80&amp;tr=udp%3A%2F%2Fopen.demonii.com%3A1337&amp;tr=udp%3A%2F%2Ftracker.coppersurfer.tk%3A6969&amp;tr=udp%3A%2F%2Fexodus.desync.com%3A6969","seeders":41,"leechers":12,"uploader":"Isaac09","files":-1,"time":1406996794,"description":"Curb Your Enthusiasm: Season 1\n\nCreator: Larry David\nWriters: Larry David, Alec Berg\nStars:   Larry David, Cheryl Hines, Jeff Garlin, Susie Essman\n     &lt;a href=&quot;\nhttp://www.imdb.com/title/tt0264235/&quot; rel=&quot;nofollow&quot; target=&quot;_NEW&quot;&gt;\nhttp://www.imdb.com/title/tt0264235/&lt;/a&gt;\n\nHe's got it all: a loving wife, good friends, a successful career, a great home...what could possibly go wrong for Larry David? Seinfeld co-creator Larry David stars as himself in this hilarious, off-kilter comedy series that presents an unflinching, self-deprecating depiction of his life.\n\nRUNTIME.......: 28 Minutes\nFRAMERATE.....: 25 fps\nBITRATE.......: 3.7 Mbps\nRESOLUTION....: 720x576\nSOURCE........: Season 1 DVD's - PAL\nGENRE.........: Comedy\n\nAUDIO 1.......: English AC3 @ 192Kbps\nSUBTITLES.....: English, French, Dutch, Arabic, Greek, Danish, Norwegian, Portuguese, Swedish\n\n\n\n\nGeneral\nUnique ID                                : 99528319175889662366473588521548587602 (0x4AE074FF5D0DA957F6CB2653C0532252)\nComplete name                            : C:UsersIsaacDownloadsCurb Your EnthusiasmSeason 1Curb Your Enthusiasm - 1x01 - The Pants Tent.mkv\nFormat                                   : Matroska\nFormat version                           : Version 2\nFile size                                : 1.06 GiB\nDuration                                 : 28mn 53s\nOverall bit rate mode                    : Variable\nOverall bit rate                         : 5 262 Kbps\nEncoded date                             : UTC 2014-08-02 13:22:27\nWriting application                      : MakeMKV v1.8.11 win(x64-release)\nWriting library                          : libmakemkv v1.8.11 (1.3.0/1.4.1) win(x64-release)\n\nVideo\nID                                       : 1\nFormat                                   : MPEG Video\nFormat version                           : Version 2\nFormat profile                           : Main@Main\nFormat settings, BVOP                    : No\nFormat settings, Matrix                  : Default\nCodec ID                                 : V_MPEG2\nCodec ID/Info                            : MPEG 1 or 2 Video\nDuration                                 : 28mn 53s\nBit rate mode                            : Variable\nBit rate                                 : 4 774 Kbps\nMaximum bit rate                         : 8 000 Kbps\nWidth                                    : 720 pixels\nHeight                                   : 576 pixels\nDisplay aspect ratio                     : 4:3\nFrame rate mode                          : Constant\nFrame rate                               : 25.000 fps\nStandard                                 : PAL\nColor space                              : YUV\nChroma subsampling                       : 4:2:0\nBit depth                                : 8 bits\nScan type                                : Interlaced\nScan order                               : Top Field First\nCompression mode                         : Lossy\nBits/(Pixel*Frame)                       : 0.460\nTime code of first frame                 : 00:59:58:00\nTime code source                         : Group of pictures header\nStream size                              : 986 MiB (91%)\nLanguage                                 : English\nDefault                                  : No\nForced                                   : No\nColor primaries                          : BT.601 PAL\nTransfer characteristics                 : BT.470 System B, BT.470 System G\nMatrix coefficients                      : BT.601\n\nAudio #1\nID                                       : 2\nFormat                                   : AC-3\nFormat/Info                              : Audio Coding 3\nFormat profile                           : Dolby Digital\nMode extension                           : CM (complete main)\nFormat settings, Endianness              : Big\nCodec ID                                 : A_AC3\nDuration                                 : 28mn 53s\nBit rate mode                            : Constant\nBit rate                                 : 192 Kbps\nChannel(s)                               : 2 channels\nChannel positions                        : Front: L R\nSampling rate                            : 48.0 KHz\nBit depth                                : 16 bits\nCompression mode                         : Lossy\nStream size                              : 39.7 MiB (4%)\nTitle                                    : Stereo\nLanguage                                 : English\nDefault                                  : Yes\nForced                                   : No\n\nAudio #2\nID                                       : 3\nFormat                                   : AC-3\nFormat/Info                              : Audio Coding 3\nFormat profile                           : Dolby Digital\nMode extension                           : CM (complete main)\nFormat settings, Endianness              : Big\nCodec ID                                 : A_AC3\nDuration                                 : 28mn 53s\nBit rate mode                            : Constant\nBit rate                                 : 192 Kbps\nChannel(s)                               : 2 channels\nChannel positions                        : Front: L R\nSampling rate                            : 48.0 KHz\nBit depth                                : 16 bits\nCompression mode                         : Lossy\nStream size                              : 39.7 MiB (4%)\nTitle                                    : Stereo\nLanguage                                 : English\nDefault                                  : No\nForced                                   : No\n\nText #1\nID                                       : 4\nFormat                                   : VobSub\nCodec ID                                 : S_VOBSUB\nCodec ID/Info                            : The same subtitle format used on DVDs\nLanguage                                 : English\nDefault                                  : Yes\nForced                                   : No\n\nText #2\nID                                       : 5\nFormat                                   : VobSub\nCodec ID                                 : S_VOBSUB\nCodec ID/Info                            : The same subtitle format used on DVDs\nLanguage                                 : French\nDefault                                  : No\nForced                                   : No\n\nText #3\nID                                       : 6\nFormat                                   : VobSub\nCodec ID                                 : S_VOBSUB\nCodec ID/Info                            : The same subtitle format used on DVDs\nLanguage                                 : Dutch\nDefault                                  : No\nForced                                   : No\n\nText #4\nID                                       : 7\nFormat                                   : VobSub\nCodec ID                                 : S_VOBSUB\nCodec ID/Info                            : The same subtitle format used on DVDs\nLanguage                                 : Arabic\nDefault                                  : No\nForced                                   : No\n\nText #5\nID                                       : 8\nFormat                                   : VobSub\nCodec ID                                 : S_VOBSUB\nCodec ID/Info                            : The same subtitle format used on DVDs\nLanguage                                 : Danish\nDefault                                  : No\nForced                                   : No\n\nText #6\nID                                       : 9\nFormat                                   : VobSub\nCodec ID                                 : S_VOBSUB\nCodec ID/Info                            : The same subtitle format used on DVDs\nLanguage                                 : Greek\nDefault                                  : No\nForced                                   : No\n\nText #7\nID                                       : 10\nFormat                                   : VobSub\nCodec ID                                 : S_VOBSUB\nCodec ID/Info                            : The same subtitle format used on DVDs\nLanguage                                 : Norwegian\nDefault                                  : No\nForced                                   : No\n\nText #8\nID                                       : 11\nFormat                                   : VobSub\nCodec ID                                 : S_VOBSUB\nCodec ID/Info                            : The same subtitle format used on DVDs\nLanguage                                 : Portuguese\nDefault                                  : No\nForced                                   : No\n\nText #9\nID                                       : 12\nFormat                                   : VobSub\nCodec ID                                 : S_VOBSUB\nCodec ID/Info                            : The same subtitle format used on DVDs\nLanguage                                 : Swedish\nDefault                                  : No\nForced                                   : No\n\nText #10\nID                                       : 13\nFormat                                   : VobSub\nCodec ID                                 : S_VOBSUB\nCodec ID/Info                            : The same subtitle format used on DVDs\nLanguage                                 : English\nDefault                                  : No\nForced                                   : No","torrent":{"xt":"urn:btih:f6e806a9406d4179cb4e846c80c77194cdb80f82","amp;dn":"Curb+Your+Enthusiasm+-+Season+1","amp;tr":["udp%3A%2F%2Ftracker.openbittorrent.com%3A80","udp%3A%2F%2Fopen.demonii.com%3A1337","udp%3A%2F%2Ftracker.coppersurfer.tk%3A6969","udp%3A%2F%2Fexodus.desync.com%3A6969"],"infoHash":"f6e806a9406d4179cb4e846c80c77194cdb80f82","infoHashBuffer":{"type":"Buffer","data":[246,232,6,169,64,109,65,121,203,78,132,108,128,199,113,148,205,184,15,130]},"announce":[],"urlList":[]}}